G04 (created by PCBNEW-RS274X (20091108 SVN-R2083)) date Ter 10 Nov 2009 12:32:46 WET*
G01*
G70*
G90*
%MOIN*%
G04 Gerber Fmt 3.4, Leading zero omitted, Abs format*
%FSLAX34Y34*%
G04 APERTURE LIST*
%ADD10C,0.000000*%
%ADD11C,0.015000*%
%ADD12R,0.041300X0.061400*%
%ADD13R,0.053100X0.043300*%
%ADD14R,0.074800X0.074800*%
%ADD15R,0.035000X0.055000*%
%ADD16C,0.039400*%
G04 APERTURE END LIST*
G54D10*
G54D11*
X55413Y-41241D02*
X55413Y-26772D01*
X68405Y-41241D02*
X55413Y-41241D01*
X68405Y-26772D02*
X68405Y-41241D01*
X68405Y-26772D02*
X55413Y-26772D01*
X54474Y-45715D02*
X54450Y-45957D01*
X54379Y-46191D01*
X54265Y-46406D01*
X54110Y-46595D01*
X53922Y-46751D01*
X53708Y-46867D01*
X53475Y-46939D01*
X53232Y-46964D01*
X52990Y-46942D01*
X52756Y-46873D01*
X52540Y-46760D01*
X52350Y-46608D01*
X52193Y-46421D01*
X52076Y-46207D01*
X52002Y-45974D01*
X51975Y-45732D01*
X51995Y-45490D01*
X52062Y-45255D01*
X52174Y-45038D01*
X52325Y-44847D01*
X52511Y-44689D01*
X52724Y-44570D01*
X52956Y-44495D01*
X53198Y-44466D01*
X53441Y-44484D01*
X53676Y-44550D01*
X53893Y-44660D01*
X54086Y-44810D01*
X54245Y-44995D01*
X54365Y-45207D01*
X54442Y-45439D01*
X54473Y-45681D01*
X54474Y-45715D01*
X50724Y-45715D02*
X55724Y-45715D01*
X53224Y-43215D02*
X53224Y-48215D01*
X54474Y-45715D02*
X54450Y-45957D01*
X54379Y-46191D01*
X54265Y-46406D01*
X54110Y-46595D01*
X53922Y-46751D01*
X53708Y-46867D01*
X53475Y-46939D01*
X53232Y-46964D01*
X52990Y-46942D01*
X52756Y-46873D01*
X52540Y-46760D01*
X52350Y-46608D01*
X52193Y-46421D01*
X52076Y-46207D01*
X52002Y-45974D01*
X51975Y-45732D01*
X51995Y-45490D01*
X52062Y-45255D01*
X52174Y-45038D01*
X52325Y-44847D01*
X52511Y-44689D01*
X52724Y-44570D01*
X52956Y-44495D01*
X53198Y-44466D01*
X53441Y-44484D01*
X53676Y-44550D01*
X53893Y-44660D01*
X54086Y-44810D01*
X54245Y-44995D01*
X54365Y-45207D01*
X54442Y-45439D01*
X54473Y-45681D01*
X54474Y-45715D01*
X50724Y-45715D02*
X55724Y-45715D01*
X53224Y-43215D02*
X53224Y-48215D01*
X54474Y-45715D02*
X54450Y-45957D01*
X54379Y-46191D01*
X54265Y-46406D01*
X54110Y-46595D01*
X53922Y-46751D01*
X53708Y-46867D01*
X53475Y-46939D01*
X53232Y-46964D01*
X52990Y-46942D01*
X52756Y-46873D01*
X52540Y-46760D01*
X52350Y-46608D01*
X52193Y-46421D01*
X52076Y-46207D01*
X52002Y-45974D01*
X51975Y-45732D01*
X51995Y-45490D01*
X52062Y-45255D01*
X52174Y-45038D01*
X52325Y-44847D01*
X52511Y-44689D01*
X52724Y-44570D01*
X52956Y-44495D01*
X53198Y-44466D01*
X53441Y-44484D01*
X53676Y-44550D01*
X53893Y-44660D01*
X54086Y-44810D01*
X54245Y-44995D01*
X54365Y-45207D01*
X54442Y-45439D01*
X54473Y-45681D01*
X54474Y-45715D01*
X50724Y-45715D02*
X55724Y-45715D01*
X53224Y-43215D02*
X53224Y-48215D01*
X54474Y-45715D02*
X54450Y-45957D01*
X54379Y-46191D01*
X54265Y-46406D01*
X54110Y-46595D01*
X53922Y-46751D01*
X53708Y-46867D01*
X53475Y-46939D01*
X53232Y-46964D01*
X52990Y-46942D01*
X52756Y-46873D01*
X52540Y-46760D01*
X52350Y-46608D01*
X52193Y-46421D01*
X52076Y-46207D01*
X52002Y-45974D01*
X51975Y-45732D01*
X51995Y-45490D01*
X52062Y-45255D01*
X52174Y-45038D01*
X52325Y-44847D01*
X52511Y-44689D01*
X52724Y-44570D01*
X52956Y-44495D01*
X53198Y-44466D01*
X53441Y-44484D01*
X53676Y-44550D01*
X53893Y-44660D01*
X54086Y-44810D01*
X54245Y-44995D01*
X54365Y-45207D01*
X54442Y-45439D01*
X54473Y-45681D01*
X54474Y-45715D01*
X50724Y-45715D02*
X55724Y-45715D01*
X53224Y-43215D02*
X53224Y-48215D01*
X54474Y-45715D02*
X54450Y-45957D01*
X54379Y-46191D01*
X54265Y-46406D01*
X54110Y-46595D01*
X53922Y-46751D01*
X53708Y-46867D01*
X53475Y-46939D01*
X53232Y-46964D01*
X52990Y-46942D01*
X52756Y-46873D01*
X52540Y-46760D01*
X52350Y-46608D01*
X52193Y-46421D01*
X52076Y-46207D01*
X52002Y-45974D01*
X51975Y-45732D01*
X51995Y-45490D01*
X52062Y-45255D01*
X52174Y-45038D01*
X52325Y-44847D01*
X52511Y-44689D01*
X52724Y-44570D01*
X52956Y-44495D01*
X53198Y-44466D01*
X53441Y-44484D01*
X53676Y-44550D01*
X53893Y-44660D01*
X54086Y-44810D01*
X54245Y-44995D01*
X54365Y-45207D01*
X54442Y-45439D01*
X54473Y-45681D01*
X54474Y-45715D01*
X50724Y-45715D02*
X55724Y-45715D01*
X53224Y-43215D02*
X53224Y-48215D01*
G54D12*
X61597Y-29177D03*
X60612Y-29177D03*
X59628Y-29177D03*
X58675Y-29177D03*
X58006Y-29177D03*
G54D13*
X57108Y-29268D03*
G54D12*
X62581Y-29177D03*
X63565Y-29177D03*
X64549Y-29177D03*
X65534Y-29177D03*
G54D14*
X67691Y-31134D03*
X56030Y-31134D03*
X67691Y-37216D03*
G54D15*
X61731Y-28052D03*
X62481Y-28052D03*
G54D16*
X61731Y-28052D02*
X61731Y-27184D01*
X61731Y-27184D02*
X61614Y-27067D01*
X61731Y-28052D02*
X61731Y-29043D01*
X61731Y-29043D02*
X61597Y-29177D01*
X62481Y-28052D02*
X62481Y-27086D01*
X62481Y-27086D02*
X62500Y-27067D01*
X62481Y-28052D02*
X62481Y-29077D01*
X62481Y-29077D02*
X62581Y-29177D01*
X62581Y-29177D02*
X62581Y-30431D01*
X59628Y-30199D02*
X59628Y-29177D01*
X60237Y-30808D02*
X59628Y-30199D01*
X62204Y-30808D02*
X60237Y-30808D01*
X62581Y-30431D02*
X62204Y-30808D01*
X64549Y-29177D02*
X64549Y-27148D01*
X64549Y-27148D02*
X64468Y-27067D01*
X63565Y-29177D02*
X63565Y-27148D01*
X63565Y-27148D02*
X63484Y-27067D01*
X58675Y-29177D02*
X58675Y-27152D01*
X58675Y-27152D02*
X58760Y-27067D01*
X60612Y-29177D02*
X60612Y-27085D01*
X60612Y-27085D02*
X60630Y-27067D01*
M02*
