G04 (created by PCBnew (20090216-final)) date Seg 18 Mai 2009 22:17:32 WEST*
G01*
G70*
G90*
%MOIN*%
G04 Gerber Fmt 3.4, Leading zero omitted, Abs format*
%FSLAX34Y34*%
G04 APERTURE LIST*
%ADD10R,0.055000X0.055000*%
%ADD11C,0.055000*%
%ADD12R,0.055000X0.035000*%
%ADD13R,0.035000X0.055000*%
%ADD14R,0.080000X0.160000*%
%ADD15R,0.036000X0.036000*%
%ADD16C,0.023600*%
%ADD17C,0.010000*%
G04 APERTURE END LIST*
G54D10*
X34400Y-15500D03*
G54D11*
X34400Y-16500D03*
G54D10*
X28600Y-16500D03*
G54D11*
X28600Y-15500D03*
G54D10*
X30700Y-20800D03*
G54D11*
X31700Y-20800D03*
X32700Y-20800D03*
G54D12*
X34800Y-18525D03*
X34800Y-19275D03*
X33300Y-19275D03*
X33300Y-18525D03*
G54D13*
X28925Y-19200D03*
X29675Y-19200D03*
G54D14*
X32500Y-16650D03*
X30300Y-16650D03*
X32500Y-14650D03*
X30300Y-14650D03*
G54D15*
X31150Y-18300D03*
X31850Y-18300D03*
X31500Y-19100D03*
G54D16*
X32500Y-16650D02*
X32500Y-14650D01*
X34400Y-15500D02*
X33350Y-15500D01*
X33350Y-15500D02*
X32500Y-14650D01*
X33300Y-18525D02*
X33300Y-18400D01*
X33300Y-18400D02*
X32500Y-17600D01*
X32500Y-17600D02*
X32500Y-16650D01*
X31850Y-18300D02*
X31850Y-18250D01*
X32500Y-17600D02*
X32500Y-16650D01*
X31850Y-18250D02*
X32500Y-17600D01*
X34400Y-16500D02*
X34400Y-18125D01*
X34400Y-18125D02*
X34800Y-18525D01*
X28925Y-19200D02*
X28925Y-20925D01*
X32700Y-21500D02*
X32700Y-20800D01*
X32400Y-21800D02*
X32700Y-21500D01*
X29800Y-21800D02*
X32400Y-21800D01*
X28925Y-20925D02*
X29800Y-21800D01*
X32700Y-20800D02*
X35000Y-20800D01*
X35000Y-20800D02*
X35800Y-20000D01*
X35800Y-20000D02*
X35800Y-18800D01*
X35800Y-18800D02*
X35525Y-18525D01*
X35525Y-18525D02*
X34800Y-18525D01*
X28600Y-16500D02*
X28600Y-18875D01*
X28600Y-18875D02*
X28925Y-19200D01*
X30300Y-16650D02*
X30300Y-17450D01*
X30300Y-17450D02*
X31150Y-18300D01*
X28600Y-15500D02*
X29450Y-15500D01*
X29450Y-15500D02*
X30300Y-16350D01*
X30300Y-16350D02*
X30300Y-16650D01*
X29450Y-15500D02*
X30300Y-14650D01*
X29675Y-19200D02*
X31400Y-19200D01*
X31400Y-19200D02*
X31500Y-19100D01*
X30700Y-20800D02*
X30700Y-19900D01*
X30700Y-19900D02*
X31500Y-19100D01*
X34800Y-19275D02*
X33300Y-19275D01*
X31700Y-20800D02*
X31700Y-20300D01*
X32725Y-19275D02*
X33300Y-19275D01*
X31700Y-20300D02*
X32725Y-19275D01*
G36*
X31350Y-18500D02*
X31350Y-17570D01*
X31050Y-17270D01*
X31050Y-13511D01*
X28100Y-13511D01*
X27600Y-13511D01*
X27011Y-13511D01*
X27011Y-15850D01*
X29450Y-15850D01*
X29450Y-17800D01*
X30170Y-17799D01*
X30870Y-18500D01*
X31350Y-18500D01*
X31350Y-18500D01*
G37*
G54D17*
X31350Y-18500D02*
X31350Y-17570D01*
X31350Y-17570D02*
X31050Y-17270D01*
X31050Y-17270D02*
X31050Y-13511D01*
X31050Y-13511D02*
X28100Y-13511D01*
X28100Y-13511D02*
X27600Y-13511D01*
X27600Y-13511D02*
X27011Y-13511D01*
X27011Y-13511D02*
X27011Y-15850D01*
X27011Y-15850D02*
X29450Y-15850D01*
X29450Y-15850D02*
X29450Y-17800D01*
X29450Y-17800D02*
X30170Y-17799D01*
X30170Y-17799D02*
X30870Y-18500D01*
X30870Y-18500D02*
X31350Y-18500D01*
G36*
X33600Y-18750D02*
X33600Y-15900D01*
X36939Y-15900D01*
X36939Y-13511D01*
X36400Y-13511D01*
X31900Y-13511D01*
X31900Y-17320D01*
X31700Y-17520D01*
X31700Y-18450D01*
X32620Y-18450D01*
X32920Y-18750D01*
X33600Y-18750D01*
X33600Y-18750D01*
G37*
X33600Y-18750D02*
X33600Y-15900D01*
X33600Y-15900D02*
X36939Y-15900D01*
X36939Y-15900D02*
X36939Y-13511D01*
X36939Y-13511D02*
X36400Y-13511D01*
X36400Y-13511D02*
X31900Y-13511D01*
X31900Y-13511D02*
X31900Y-17320D01*
X31900Y-17320D02*
X31700Y-17520D01*
X31700Y-17520D02*
X31700Y-18450D01*
X31700Y-18450D02*
X32620Y-18450D01*
X32620Y-18450D02*
X32920Y-18750D01*
X32920Y-18750D02*
X33600Y-18750D01*
G36*
X36939Y-22589D02*
X36939Y-16250D01*
X34000Y-16250D01*
X34000Y-17850D01*
X35320Y-17850D01*
X35449Y-17979D01*
X35449Y-19870D01*
X35370Y-19950D01*
X33770Y-19950D01*
X33600Y-20120D01*
X33600Y-21320D01*
X33370Y-21550D01*
X30079Y-21550D01*
X29900Y-21370D01*
X29900Y-20470D01*
X29200Y-19770D01*
X29200Y-18170D01*
X29050Y-18020D01*
X29050Y-16200D01*
X27011Y-16200D01*
X27011Y-22589D01*
X36939Y-22589D01*
X36939Y-22589D01*
G37*
X36939Y-22589D02*
X36939Y-16250D01*
X36939Y-16250D02*
X34000Y-16250D01*
X34000Y-16250D02*
X34000Y-17850D01*
X34000Y-17850D02*
X35320Y-17850D01*
X35320Y-17850D02*
X35449Y-17979D01*
X35449Y-17979D02*
X35449Y-19870D01*
X35449Y-19870D02*
X35370Y-19950D01*
X35370Y-19950D02*
X33770Y-19950D01*
X33770Y-19950D02*
X33600Y-20120D01*
X33600Y-20120D02*
X33600Y-21320D01*
X33600Y-21320D02*
X33370Y-21550D01*
X33370Y-21550D02*
X30079Y-21550D01*
X30079Y-21550D02*
X29900Y-21370D01*
X29900Y-21370D02*
X29900Y-20470D01*
X29900Y-20470D02*
X29200Y-19770D01*
X29200Y-19770D02*
X29200Y-18170D01*
X29200Y-18170D02*
X29050Y-18020D01*
X29050Y-18020D02*
X29050Y-16200D01*
X29050Y-16200D02*
X27011Y-16200D01*
X27011Y-16200D02*
X27011Y-22589D01*
X27011Y-22589D02*
X36939Y-22589D01*
M02*
